<svg xmlns="http://www.w3.org/2000/svg" viewBox="0 0 64 64">
  <title>TechBy favicon</title>
  <defs>
    <linearGradient id="tbGradient" x1="0" y1="0" x2="1" y2="1">
      <stop offset="0%" stop-color="#0ea5e9"/>
      <stop offset="52%" stop-color="#10b981"/>
      <stop offset="100%" stop-color="#059669"/>
    </linearGradient>
  </defs>
  <rect width="64" height="64" rx="14" fill="#ffffff"/>
  <path d="M9 15h28l-4.5 7H25v27h-9V22H9z" fill="url(#tbGradient)"/>
  <path d="M34 15h11.5c6.1 0 9.5 3.1 9.5 7.7 0 3.1-1.7 5.5-4.5 6.7 3.6 1.1 5.7 3.7 5.7 7.2 0 5.6-4.3 9.4-10.8 9.4H34zm8.5 6.6v6.1h3.2c2.1 0 3.3-1.1 3.3-3.1 0-2-1.2-3-3.3-3zm0 12.2v5.8h3.9c2.2 0 3.5-1.1 3.5-2.9 0-1.9-1.3-2.9-3.5-2.9z" fill="url(#tbGradient)"/>
  <rect x="8" y="48" width="4" height="4" rx="1.2" fill="#0ea5e9"/>
  <rect x="13" y="52" width="3" height="3" rx="1" fill="#10b981"/>
</svg>
